<svg xmlns="http://www.w3.org/2000/svg" xmlns:svg="http://www.w3.org/2000/svg" id="svg2342" width="576" height="512" version="1.1" viewBox="0 0 152.4 135.467"><metadata id="metadata2339"/><g id="layer1" transform="translate(-30.76428,-76.367131)"><path id="path2316" d="m 181.44907,192.78724 c 4.88368,8.46508 -1.24646,19.04656 -11.00059,19.04656 H 43.47865 c -9.77292,0 -15.87474,-10.59789 -11.00059,-19.04656 L 95.96378,82.713164 c 4.88606,-8.46905 17.12383,-8.4537 22.00116,0 z m -74.48471,-22.75761 c -6.72174,0 -12.17083,5.44909 -12.17083,12.17083 0,6.72174 5.44909,12.17084 12.17083,12.17084 6.72175,0 12.17083,-5.4491 12.17083,-12.17084 0,-6.72174 -5.44908,-12.17083 -12.17083,-12.17083 z m -11.55515,-43.7478 1.96268,35.98333 c 0.0918,1.68381 1.48405,3.00197 3.17024,3.00197 h 12.84446 c 1.68619,0 3.07843,-1.31816 3.17024,-3.00197 l 1.96268,-35.98333 c 0.0992,-1.81874 -1.34885,-3.34804 -3.17024,-3.34804 H 98.57919 c -1.8214,0 -3.2692,1.5293 -3.16998,3.34804 z" style="fill:#333;stroke-width:.264583"/></g></svg>